<svg xmlns="http://www.w3.org/2000/svg" viewBox="830 517 46.1 46.1">
  <defs>
    <style>
      .cls-1 {
        fill: #f46969;
      }
    </style>
  </defs>
  <g id="Group_20" data-name="Group 20" transform="translate(830 517)">
    <g id="Group_18" data-name="Group 18">
      <g id="Group_17" data-name="Group 17">
        <path id="Path_13" data-name="Path 13" class="cls-1" d="M40.5,46.1H1.2A1.135,1.135,0,0,1,0,45V5.6A1.135,1.135,0,0,1,1.2,4.5H19.7V6.8H2.3v37h37V26.4h2.3V45A1.11,1.11,0,0,1,40.5,46.1Z"/>
      </g>
    </g>
    <g id="Group_19" data-name="Group 19">
      <path id="Path_14" data-name="Path 14" class="cls-1" d="M25.5,30.4H16.8a1.216,1.216,0,0,1-1.2-1.2V20.5a1.135,1.135,0,0,1,.3-.8L35.5.3a1.217,1.217,0,0,1,1.6,0L45.8,9a1.215,1.215,0,0,1,0,1.6L26.3,30.1A1.136,1.136,0,0,1,25.5,30.4ZM18,28.1h7L43.3,9.8l-7-7.1L18,21.1Z"/>
    </g>
  </g>
</svg>
