<svg xmlns="http://www.w3.org/2000/svg" viewBox="941 514 39.7 52.6">
  <defs>
    <style>
      .cls-1 {
        fill: #fff;
      }
    </style>
  </defs>
  <g id="Group_16" data-name="Group 16" transform="translate(941 514)">
    <g id="Group_9" data-name="Group 9">
      <path id="Path_7" data-name="Path 7" class="cls-1" d="M24.7,6.4H14.9a1.216,1.216,0,0,1-1.2-1.2v-4A1.216,1.216,0,0,1,14.9,0h9.8a1.216,1.216,0,0,1,1.2,1.2V5.3A1.135,1.135,0,0,1,24.7,6.4ZM16,4.1h7.5V2.3H16Z"/>
    </g>
    <g id="Group_10" data-name="Group 10">
      <path id="Path_8" data-name="Path 8" class="cls-1" d="M38.4,10.9H1.2A1.155,1.155,0,0,1,0,9.7V5.3A1.216,1.216,0,0,1,1.2,4.1H38.5a1.216,1.216,0,0,1,1.2,1.2V9.8A1.3,1.3,0,0,1,38.4,10.9ZM2.3,8.6h35V6.4H2.3V8.6Z"/>
    </g>
    <g id="Group_11" data-name="Group 11">
      <path id="Path_9" data-name="Path 9" class="cls-1" d="M36.1,52.6H3.5a1.216,1.216,0,0,1-1.2-1.2V9.7A1.216,1.216,0,0,1,3.5,8.5H36a1.216,1.216,0,0,1,1.2,1.2V51.5A1.11,1.11,0,0,1,36.1,52.6ZM4.7,50.3H34.9V10.9H4.7Z"/>
    </g>
    <g id="Group_15" data-name="Group 15">
      <g id="Group_12" data-name="Group 12">
        <path id="Path_10" data-name="Path 10" class="cls-1" d="M11.8,45.2A1.216,1.216,0,0,1,10.6,44V17.1a1.2,1.2,0,1,1,2.4,0V44A1.287,1.287,0,0,1,11.8,45.2Z"/>
      </g>
      <g id="Group_13" data-name="Group 13">
        <path id="Path_11" data-name="Path 11" class="cls-1" d="M19.8,45.2A1.216,1.216,0,0,1,18.6,44V17.1a1.216,1.216,0,0,1,1.2-1.2A1.155,1.155,0,0,1,21,17.1V44A1.216,1.216,0,0,1,19.8,45.2Z"/>
      </g>
      <g id="Group_14" data-name="Group 14">
        <path id="Path_12" data-name="Path 12" class="cls-1" d="M27.8,45.2A1.216,1.216,0,0,1,26.6,44V17.1a1.2,1.2,0,0,1,2.4,0V44A1.155,1.155,0,0,1,27.8,45.2Z"/>
      </g>
    </g>
  </g>
</svg>
